<?xml version="1.0" standalone="no"?><!DOCTYPE svg PUBLIC "-//W3C//DTD SVG 1.1//EN" "http://www.w3.org/Graphics/SVG/1.1/DTD/svg11.dtd"><svg t="1713591744043" class="icon" viewBox="0 0 1024 1024" version="1.1" xmlns="http://www.w3.org/2000/svg" p-id="12230" width="48" height="48" xmlns:xlink="http://www.w3.org/1999/xlink"><path d="M745.3 730.2l-549.6-22.9-45.1-255.5 508.6-209.4z" fill="#FFFFFF" p-id="12231"></path><path d="M751.3 735.5l-559.8-23.3L145 448.7l518.1-213.4 88.2 500.2z m-551.4-33L739.3 725l-83.9-475.6-499.1 205.5 43.6 247.6z" fill="" p-id="12232"></path><path d="M71.298 398.595l67.853-11.961 66.61 377.868-67.853 11.96z" fill="#FFFFFF" p-id="12233"></path><path d="M133.9 782.2L65.5 394.5l77.7-13.7 68.4 387.7-77.7 13.7zM77.1 402.6l64.9 368 58-10.2-64.9-368-58 10.2z" fill="" p-id="12234"></path><path d="M646.004 167.468l67.852-11.96L824.84 785.09l-67.853 11.961z" fill="#FFFFFF" p-id="12235"></path><path d="M753 802.8L640.2 163.4l77.7-13.7 112.8 639.5-77.7 13.6zM651.8 171.5l109.3 619.8 58-10.2-109.3-619.8-58 10.2zM894.2 267.9c-26.1-40.3-58.1-75.9-95.3-106l2.7 15.6c75.5 64.5 130 154.6 148.5 259.9 18.6 105.3-1.8 208.5-50.7 295l2.7 15.6c24.7-41 42.6-85.4 53.4-132.2 13.6-59.2 15.1-119.8 4.4-180.1-10.6-60.4-32.7-116.9-65.7-167.8z" fill="" p-id="12236"></path><path d="M817.8 317.2c-15.8-24.3-34.2-46.5-55.1-66.2l3 17.3c47.9 49 82 112.4 94.8 184.8 12.8 72.4 2.4 143.6-25.9 206.1l3 17.3c12.9-25.7 22.6-52.8 29.1-81.1 10.9-47.3 12.1-95.8 3.6-144-8.4-48.3-26.1-93.4-52.5-134.2z" fill="" p-id="12237"></path></svg>